<mxfile host="app.diagrams.net" modified="2023-06-18T19:30:34.162Z" agent="Mozilla/5.0 (Windows NT 10.0; Win64; x64) AppleWebKit/537.36 (KHTML, like Gecko) Chrome/114.0.0.0 Safari/537.36" etag="oZoc2dH7lG3I5hFa3MSt" version="21.4.0" type="device">
  <diagram name="Page-1" id="BXRBHZn7yLMNFsL2Z0cU">
    <mxGraphModel dx="2250" dy="1832" grid="0" gridSize="10" guides="1" tooltips="1" connect="1" arrows="1" fold="1" page="1" pageScale="1" pageWidth="850" pageHeight="1100" math="0" shadow="0">
      <root>
        <mxCell id="0" />
        <mxCell id="1" parent="0" />
        <mxCell id="JIB8A858qkFbzwJGb11z-1" value="Camera" style="rounded=0;whiteSpace=wrap;html=1;strokeWidth=2;fontStyle=1;fontSize=13;" vertex="1" parent="1">
          <mxGeometry x="-587" y="-1013" width="120" height="40" as="geometry" />
        </mxCell>
        <mxCell id="JIB8A858qkFbzwJGb11z-2" value="" style="endArrow=none;dashed=1;html=1;rounded=0;entryX=0.5;entryY=1;entryDx=0;entryDy=0;startArrow=none;strokeWidth=2;fontStyle=1;fontSize=13;" edge="1" parent="1" target="JIB8A858qkFbzwJGb11z-1">
          <mxGeometry width="50" height="50" relative="1" as="geometry">
            <mxPoint x="-527" y="-933" as="sourcePoint" />
            <mxPoint x="-387" y="-883" as="targetPoint" />
          </mxGeometry>
        </mxCell>
        <mxCell id="JIB8A858qkFbzwJGb11z-3" value="" style="endArrow=none;dashed=1;html=1;rounded=0;entryX=0.5;entryY=1;entryDx=0;entryDy=0;startArrow=none;strokeWidth=2;fontStyle=1;fontSize=13;" edge="1" parent="1">
          <mxGeometry width="50" height="50" relative="1" as="geometry">
            <mxPoint x="-367.5" y="-823" as="sourcePoint" />
            <mxPoint x="-367.5" y="-973" as="targetPoint" />
          </mxGeometry>
        </mxCell>
        <mxCell id="JIB8A858qkFbzwJGb11z-4" value="" style="endArrow=none;dashed=1;html=1;rounded=0;entryX=0.5;entryY=1;entryDx=0;entryDy=0;strokeWidth=2;startArrow=none;fontStyle=1;fontSize=13;" edge="1" parent="1" source="JIB8A858qkFbzwJGb11z-41">
          <mxGeometry width="50" height="50" relative="1" as="geometry">
            <mxPoint x="-207.33000000000004" y="7" as="sourcePoint" />
            <mxPoint x="-207" y="-973" as="targetPoint" />
          </mxGeometry>
        </mxCell>
        <mxCell id="JIB8A858qkFbzwJGb11z-6" value="" style="endArrow=none;dashed=1;html=1;rounded=0;entryX=0.443;entryY=1.01;entryDx=0;entryDy=0;startArrow=none;entryPerimeter=0;strokeWidth=2;fontStyle=1;fontSize=13;" edge="1" parent="1" target="JIB8A858qkFbzwJGb11z-20">
          <mxGeometry width="50" height="50" relative="1" as="geometry">
            <mxPoint x="-528" y="-331" as="sourcePoint" />
            <mxPoint x="-527" y="-853" as="targetPoint" />
          </mxGeometry>
        </mxCell>
        <mxCell id="JIB8A858qkFbzwJGb11z-7" value="" style="endArrow=classic;html=1;rounded=0;entryX=-0.09;entryY=0.008;entryDx=0;entryDy=0;entryPerimeter=0;strokeWidth=2;fontStyle=1;fontSize=13;" edge="1" parent="1">
          <mxGeometry width="50" height="50" relative="1" as="geometry">
            <mxPoint x="-687" y="-933" as="sourcePoint" />
            <mxPoint x="-532.9000000000001" y="-932.36" as="targetPoint" />
          </mxGeometry>
        </mxCell>
        <mxCell id="JIB8A858qkFbzwJGb11z-8" value="" style="endArrow=none;dashed=1;html=1;rounded=0;startArrow=none;strokeWidth=2;fontStyle=1;fontSize=13;" edge="1" parent="1" target="JIB8A858qkFbzwJGb11z-91" source="JIB8A858qkFbzwJGb11z-103">
          <mxGeometry width="50" height="50" relative="1" as="geometry">
            <mxPoint x="-367" y="-329" as="sourcePoint" />
            <mxPoint x="-367" y="-380" as="targetPoint" />
          </mxGeometry>
        </mxCell>
        <mxCell id="JIB8A858qkFbzwJGb11z-9" value="" style="html=1;points=[];perimeter=orthogonalPerimeter;strokeWidth=2;fontStyle=1;fontSize=13;" vertex="1" parent="1">
          <mxGeometry x="-692" y="-933" width="10" height="70" as="geometry" />
        </mxCell>
        <mxCell id="JIB8A858qkFbzwJGb11z-10" value="" style="endArrow=none;dashed=1;html=1;rounded=0;exitX=0.5;exitY=1;exitDx=0;exitDy=0;strokeWidth=2;fontStyle=1;fontSize=13;" edge="1" parent="1" target="JIB8A858qkFbzwJGb11z-9">
          <mxGeometry width="50" height="50" relative="1" as="geometry">
            <mxPoint x="-687" y="-973" as="sourcePoint" />
            <mxPoint x="-687" y="-463" as="targetPoint" />
          </mxGeometry>
        </mxCell>
        <mxCell id="JIB8A858qkFbzwJGb11z-11" value="" style="endArrow=classic;html=1;rounded=0;entryX=0.062;entryY=0.004;entryDx=0;entryDy=0;entryPerimeter=0;strokeWidth=2;fontStyle=1;fontSize=13;" edge="1" parent="1">
          <mxGeometry width="50" height="50" relative="1" as="geometry">
            <mxPoint x="-525" y="-823" as="sourcePoint" />
            <mxPoint x="-371.3800000000001" y="-822.68" as="targetPoint" />
            <Array as="points" />
          </mxGeometry>
        </mxCell>
        <mxCell id="JIB8A858qkFbzwJGb11z-12" value="" style="endArrow=block;dashed=1;endFill=0;endSize=12;html=1;rounded=0;strokeWidth=2;fontStyle=1;fontSize=13;entryX=1.433;entryY=0.277;entryDx=0;entryDy=0;entryPerimeter=0;" edge="1" parent="1">
          <mxGeometry width="160" relative="1" as="geometry">
            <mxPoint x="-377" y="-763" as="sourcePoint" />
            <mxPoint x="-681.6700000000001" y="-761" as="targetPoint" />
            <Array as="points">
              <mxPoint x="-682" y="-761.25" />
            </Array>
          </mxGeometry>
        </mxCell>
        <mxCell id="JIB8A858qkFbzwJGb11z-14" value="" style="endArrow=classic;html=1;rounded=0;dashed=1;labelBackgroundColor=default;strokeColor=default;strokeWidth=2;fontFamily=Helvetica;fontSize=13;fontColor=default;endSize=12;shape=connector;fontStyle=1" edge="1" parent="1">
          <mxGeometry width="50" height="50" relative="1" as="geometry">
            <mxPoint x="-397" y="-453" as="sourcePoint" />
            <mxPoint x="-397" y="-453" as="targetPoint" />
          </mxGeometry>
        </mxCell>
        <mxCell id="JIB8A858qkFbzwJGb11z-20" value="" style="html=1;points=[];perimeter=orthogonalPerimeter;strokeWidth=2;fontStyle=1;fontSize=13;" vertex="1" parent="1">
          <mxGeometry x="-532" y="-933" width="10" height="125" as="geometry" />
        </mxCell>
        <mxCell id="JIB8A858qkFbzwJGb11z-21" value="" style="html=1;points=[];perimeter=orthogonalPerimeter;strokeWidth=2;fontStyle=1;fontSize=13;" vertex="1" parent="1">
          <mxGeometry x="-372" y="-823" width="10" height="70" as="geometry" />
        </mxCell>
        <mxCell id="JIB8A858qkFbzwJGb11z-24" value="OpenCV" style="rounded=0;whiteSpace=wrap;html=1;strokeWidth=2;fontStyle=1;fontSize=13;" vertex="1" parent="1">
          <mxGeometry x="-427" y="-1013" width="120" height="40" as="geometry" />
        </mxCell>
        <mxCell id="JIB8A858qkFbzwJGb11z-26" value="NeuralNet:CNN" style="rounded=0;whiteSpace=wrap;html=1;strokeWidth=2;fontStyle=1;fontSize=13;" vertex="1" parent="1">
          <mxGeometry x="-267" y="-1013" width="120" height="40" as="geometry" />
        </mxCell>
        <mxCell id="JIB8A858qkFbzwJGb11z-27" value="&lt;span style=&quot;font-size: 13px;&quot;&gt;Capture The Actions&lt;/span&gt;" style="text;html=1;align=center;verticalAlign=middle;resizable=0;points=[];autosize=1;strokeColor=none;fillColor=none;fontSize=13;fontFamily=Helvetica;fontColor=default;strokeWidth=2;fontStyle=1" vertex="1" parent="1">
          <mxGeometry x="-688" y="-956" width="145" height="28" as="geometry" />
        </mxCell>
        <mxCell id="JIB8A858qkFbzwJGb11z-28" value="Process Video Stream" style="text;html=1;align=center;verticalAlign=middle;resizable=0;points=[];autosize=1;strokeColor=none;fillColor=none;fontSize=13;fontFamily=Helvetica;fontColor=default;strokeWidth=2;fontStyle=1" vertex="1" parent="1">
          <mxGeometry x="-528.5" y="-851" width="155" height="28" as="geometry" />
        </mxCell>
        <mxCell id="JIB8A858qkFbzwJGb11z-29" value="return()" style="text;html=1;align=center;verticalAlign=middle;resizable=0;points=[];autosize=1;strokeColor=none;fillColor=none;fontSize=13;fontFamily=Helvetica;fontColor=default;strokeWidth=2;fontStyle=1" vertex="1" parent="1">
          <mxGeometry x="-483" y="-791" width="64" height="28" as="geometry" />
        </mxCell>
        <mxCell id="JIB8A858qkFbzwJGb11z-34" value="" style="endArrow=block;dashed=1;endFill=0;endSize=12;html=1;rounded=0;strokeWidth=2;fontStyle=1;fontSize=13;entryX=1.433;entryY=0.277;entryDx=0;entryDy=0;entryPerimeter=0;" edge="1" parent="1">
          <mxGeometry width="160" relative="1" as="geometry">
            <mxPoint x="-533.75" y="-871" as="sourcePoint" />
            <mxPoint x="-679.9200000000001" y="-870.75" as="targetPoint" />
            <Array as="points">
              <mxPoint x="-680.25" y="-871" />
            </Array>
          </mxGeometry>
        </mxCell>
        <mxCell id="JIB8A858qkFbzwJGb11z-35" value="return()" style="text;html=1;align=center;verticalAlign=middle;resizable=0;points=[];autosize=1;strokeColor=none;fillColor=none;fontSize=13;fontFamily=Helvetica;fontColor=default;strokeWidth=2;fontStyle=1" vertex="1" parent="1">
          <mxGeometry x="-638" y="-894" width="64" height="28" as="geometry" />
        </mxCell>
        <mxCell id="JIB8A858qkFbzwJGb11z-40" value="" style="endArrow=none;dashed=1;html=1;rounded=0;entryX=0.5;entryY=1;entryDx=0;entryDy=0;strokeWidth=2;fontStyle=1;fontSize=13;" edge="1" parent="1" target="JIB8A858qkFbzwJGb11z-41">
          <mxGeometry width="50" height="50" relative="1" as="geometry">
            <mxPoint x="-207" y="-327" as="sourcePoint" />
            <mxPoint x="-207" y="-973" as="targetPoint" />
          </mxGeometry>
        </mxCell>
        <mxCell id="JIB8A858qkFbzwJGb11z-41" value="" style="html=1;points=[];perimeter=orthogonalPerimeter;strokeWidth=2;fontStyle=1;fontSize=13;" vertex="1" parent="1">
          <mxGeometry x="-212" y="-564" width="10" height="109" as="geometry" />
        </mxCell>
        <mxCell id="JIB8A858qkFbzwJGb11z-53" value="User" style="shape=umlActor;verticalLabelPosition=bottom;verticalAlign=top;html=1;outlineConnect=0;fontSize=13;fontStyle=1" vertex="1" parent="1">
          <mxGeometry x="-702" y="-1060" width="30" height="60" as="geometry" />
        </mxCell>
        <mxCell id="JIB8A858qkFbzwJGb11z-55" value="Segmentation&lt;br&gt;image" style="text;html=1;align=center;verticalAlign=middle;resizable=0;points=[];autosize=1;strokeColor=none;fillColor=none;fontSize=13;fontStyle=1" vertex="1" parent="1">
          <mxGeometry x="-324" y="-677" width="104" height="43" as="geometry" />
        </mxCell>
        <mxCell id="JIB8A858qkFbzwJGb11z-56" value="" style="endArrow=classic;html=1;rounded=0;strokeWidth=2;fontStyle=1;fontSize=13;" edge="1" parent="1">
          <mxGeometry width="50" height="50" relative="1" as="geometry">
            <mxPoint x="-362" y="-799" as="sourcePoint" />
            <mxPoint x="-359" y="-729" as="targetPoint" />
            <Array as="points">
              <mxPoint x="-323" y="-799" />
              <mxPoint x="-323" y="-759" />
              <mxPoint x="-323" y="-729" />
            </Array>
          </mxGeometry>
        </mxCell>
        <mxCell id="JIB8A858qkFbzwJGb11z-57" value="Transform video&amp;nbsp;&lt;br&gt;into frames" style="text;html=1;align=center;verticalAlign=middle;resizable=0;points=[];autosize=1;strokeColor=none;fillColor=none;fontSize=13;fontStyle=1" vertex="1" parent="1">
          <mxGeometry x="-330" y="-775" width="123" height="43" as="geometry" />
        </mxCell>
        <mxCell id="JIB8A858qkFbzwJGb11z-84" value="" style="endArrow=none;dashed=1;html=1;rounded=0;entryX=0.443;entryY=1.01;entryDx=0;entryDy=0;startArrow=none;entryPerimeter=0;strokeWidth=2;fontStyle=1;fontSize=13;" edge="1" parent="1" source="JIB8A858qkFbzwJGb11z-87">
          <mxGeometry width="50" height="50" relative="1" as="geometry">
            <mxPoint x="-693" y="-407" as="sourcePoint" />
            <mxPoint x="-687.83" y="-861" as="targetPoint" />
            <Array as="points">
              <mxPoint x="-693" y="-411" />
            </Array>
          </mxGeometry>
        </mxCell>
        <mxCell id="JIB8A858qkFbzwJGb11z-88" value="" style="endArrow=none;dashed=1;html=1;rounded=0;startArrow=none;strokeWidth=2;fontStyle=1;fontSize=13;" edge="1" parent="1" target="JIB8A858qkFbzwJGb11z-87">
          <mxGeometry width="50" height="50" relative="1" as="geometry">
            <mxPoint x="-692" y="-334" as="sourcePoint" />
            <mxPoint x="-692" y="-278" as="targetPoint" />
            <Array as="points" />
          </mxGeometry>
        </mxCell>
        <mxCell id="JIB8A858qkFbzwJGb11z-89" value="" style="html=1;points=[];perimeter=orthogonalPerimeter;strokeWidth=2;fontStyle=1;fontSize=13;" vertex="1" parent="1">
          <mxGeometry x="-372" y="-729" width="10" height="70" as="geometry" />
        </mxCell>
        <mxCell id="JIB8A858qkFbzwJGb11z-90" value="" style="html=1;points=[];perimeter=orthogonalPerimeter;strokeWidth=2;fontStyle=1;fontSize=13;" vertex="1" parent="1">
          <mxGeometry x="-372" y="-634" width="10" height="70" as="geometry" />
        </mxCell>
        <mxCell id="JIB8A858qkFbzwJGb11z-91" value="" style="html=1;points=[];perimeter=orthogonalPerimeter;strokeWidth=2;fontStyle=1;fontSize=13;" vertex="1" parent="1">
          <mxGeometry x="-372" y="-539" width="10" height="142" as="geometry" />
        </mxCell>
        <mxCell id="JIB8A858qkFbzwJGb11z-92" value="" style="endArrow=classic;html=1;rounded=0;strokeWidth=2;fontStyle=1;fontSize=13;" edge="1" parent="1">
          <mxGeometry width="50" height="50" relative="1" as="geometry">
            <mxPoint x="-362" y="-681" as="sourcePoint" />
            <mxPoint x="-359" y="-632" as="targetPoint" />
            <Array as="points">
              <mxPoint x="-323" y="-681" />
              <mxPoint x="-323" y="-632" />
            </Array>
          </mxGeometry>
        </mxCell>
        <mxCell id="JIB8A858qkFbzwJGb11z-93" value="" style="endArrow=classic;html=1;rounded=0;strokeWidth=2;fontStyle=1;fontSize=13;exitX=1.065;exitY=0.031;exitDx=0;exitDy=0;exitPerimeter=0;" edge="1" parent="1" source="JIB8A858qkFbzwJGb11z-91">
          <mxGeometry width="50" height="50" relative="1" as="geometry">
            <mxPoint x="-362" y="-531" as="sourcePoint" />
            <mxPoint x="-213" y="-534" as="targetPoint" />
            <Array as="points" />
          </mxGeometry>
        </mxCell>
        <mxCell id="JIB8A858qkFbzwJGb11z-94" value="&lt;b&gt;&lt;font style=&quot;font-size: 13px;&quot;&gt;Predict The Label&lt;/font&gt;&lt;/b&gt;" style="text;html=1;align=center;verticalAlign=middle;resizable=0;points=[];autosize=1;strokeColor=none;fillColor=none;" vertex="1" parent="1">
          <mxGeometry x="-352" y="-560" width="126" height="28" as="geometry" />
        </mxCell>
        <mxCell id="JIB8A858qkFbzwJGb11z-95" value="" style="endArrow=block;dashed=1;endFill=0;endSize=12;html=1;rounded=0;strokeWidth=2;fontStyle=1;fontSize=13;" edge="1" parent="1">
          <mxGeometry width="160" relative="1" as="geometry">
            <mxPoint x="-214.5" y="-466" as="sourcePoint" />
            <mxPoint x="-362" y="-466" as="targetPoint" />
            <Array as="points" />
          </mxGeometry>
        </mxCell>
        <mxCell id="JIB8A858qkFbzwJGb11z-96" value="&lt;b&gt;&lt;font style=&quot;font-size: 13px;&quot;&gt;display_label&lt;/font&gt;&lt;/b&gt;" style="text;html=1;align=center;verticalAlign=middle;resizable=0;points=[];autosize=1;strokeColor=none;fillColor=none;" vertex="1" parent="1">
          <mxGeometry x="-339" y="-493" width="100" height="28" as="geometry" />
        </mxCell>
        <mxCell id="JIB8A858qkFbzwJGb11z-97" value="" style="endArrow=block;dashed=1;endFill=0;endSize=12;html=1;rounded=0;strokeWidth=2;fontStyle=1;fontSize=13;entryX=1;entryY=0.673;entryDx=0;entryDy=0;entryPerimeter=0;" edge="1" parent="1" target="JIB8A858qkFbzwJGb11z-87">
          <mxGeometry width="160" relative="1" as="geometry">
            <mxPoint x="-375" y="-443" as="sourcePoint" />
            <mxPoint x="-352" y="-456" as="targetPoint" />
            <Array as="points" />
          </mxGeometry>
        </mxCell>
        <mxCell id="JIB8A858qkFbzwJGb11z-98" value="" style="endArrow=none;dashed=1;html=1;rounded=0;entryX=0.443;entryY=1.01;entryDx=0;entryDy=0;startArrow=none;entryPerimeter=0;strokeWidth=2;fontStyle=1;fontSize=13;" edge="1" parent="1" target="JIB8A858qkFbzwJGb11z-87">
          <mxGeometry width="50" height="50" relative="1" as="geometry">
            <mxPoint x="-693" y="-407" as="sourcePoint" />
            <mxPoint x="-687.83" y="-861" as="targetPoint" />
            <Array as="points" />
          </mxGeometry>
        </mxCell>
        <mxCell id="JIB8A858qkFbzwJGb11z-87" value="" style="html=1;points=[];perimeter=orthogonalPerimeter;strokeWidth=2;fontStyle=1;fontSize=13;" vertex="1" parent="1">
          <mxGeometry x="-698" y="-528" width="10" height="127" as="geometry" />
        </mxCell>
        <mxCell id="JIB8A858qkFbzwJGb11z-99" value="Show Text" style="text;html=1;align=center;verticalAlign=middle;resizable=0;points=[];autosize=1;strokeColor=none;fillColor=none;fontSize=13;fontFamily=Helvetica;fontColor=default;strokeWidth=2;fontStyle=1" vertex="1" parent="1">
          <mxGeometry x="-520" y="-472" width="82" height="28" as="geometry" />
        </mxCell>
        <mxCell id="JIB8A858qkFbzwJGb11z-101" value="" style="shape=umlDestroy;whiteSpace=wrap;html=1;strokeWidth=3;targetShapes=umlLifeline;" vertex="1" parent="1">
          <mxGeometry x="-543" y="-342" width="30" height="30" as="geometry" />
        </mxCell>
        <mxCell id="JIB8A858qkFbzwJGb11z-104" value="" style="endArrow=none;dashed=1;html=1;rounded=0;startArrow=none;strokeWidth=2;fontStyle=1;fontSize=13;" edge="1" parent="1" target="JIB8A858qkFbzwJGb11z-103">
          <mxGeometry width="50" height="50" relative="1" as="geometry">
            <mxPoint x="-367" y="-329" as="sourcePoint" />
            <mxPoint x="-367" y="-397" as="targetPoint" />
          </mxGeometry>
        </mxCell>
        <mxCell id="JIB8A858qkFbzwJGb11z-103" value="" style="shape=umlDestroy;whiteSpace=wrap;html=1;strokeWidth=3;targetShapes=umlLifeline;" vertex="1" parent="1">
          <mxGeometry x="-382" y="-342" width="30" height="30" as="geometry" />
        </mxCell>
        <mxCell id="JIB8A858qkFbzwJGb11z-105" value="" style="shape=umlDestroy;whiteSpace=wrap;html=1;strokeWidth=3;targetShapes=umlLifeline;" vertex="1" parent="1">
          <mxGeometry x="-222" y="-342" width="30" height="30" as="geometry" />
        </mxCell>
        <mxCell id="JIB8A858qkFbzwJGb11z-106" value="&lt;font size=&quot;1&quot; style=&quot;&quot;&gt;&lt;u style=&quot;font-size: 17px;&quot;&gt;Sequence Diagram Of Sign Language To Text &amp;amp; Voice Conversion&lt;/u&gt;&lt;/font&gt;" style="text;html=1;align=center;verticalAlign=middle;resizable=0;points=[];autosize=1;strokeColor=none;fillColor=none;strokeWidth=2;fontStyle=1" vertex="1" parent="1">
          <mxGeometry x="-699" y="-250" width="548" height="32" as="geometry" />
        </mxCell>
      </root>
    </mxGraphModel>
  </diagram>
</mxfile>
